<svg width="60" height="52" viewBox="0 0 60 52" fill="none" xmlns="http://www.w3.org/2000/svg">
<path fill-rule="evenodd" clip-rule="evenodd" d="M34.7312 32.1134C34.8194 31.7674 34.9732 31.4425 35.1841 31.157C35.5767 30.6365 36.0963 30.2306 36.6908 29.9798C37.2255 29.7444 37.7918 29.5922 38.3707 29.5284C38.4897 29.513 38.613 29.5035 38.7327 29.4942L38.7521 29.4927C39.1188 29.4785 39.4713 29.3447 39.7581 29.111C40.045 28.8771 40.251 28.5557 40.3462 28.1937C40.3897 28.0136 40.4221 27.8309 40.4431 27.6465C40.4764 27.3685 40.4935 27.084 40.5121 26.7762C40.5254 26.5554 40.5395 26.3224 40.5608 26.0715C40.6852 25.0491 40.9748 24.0548 41.4174 23.1292C41.5078 22.9346 41.6 22.7459 41.6907 22.5607C42.1759 21.5676 42.6144 20.6706 42.4886 19.4693C42.3901 18.5436 41.9259 17.9233 41.3093 17.2836C41.0164 16.9776 40.628 16.7161 40.2249 16.4446C39.0967 15.685 37.8527 14.8474 38.2626 12.7372C38.598 11.0273 41.3728 9.23295 45.273 8.60624C44.8947 8.66489 45.728 10.1175 45.8205 10.2788L45.8261 10.2885C45.9336 10.4606 46.0438 10.6301 46.1537 10.7993C46.4711 11.288 46.7873 11.7741 47.0339 12.3133C47.6855 13.721 47.9875 15.3498 47.7206 16.8924C47.4787 18.2884 46.5752 19.4037 45.7054 20.4776C45.5636 20.6526 45.4227 20.8265 45.2857 21.0003C44.1223 22.4764 42.9017 24.4103 42.6316 26.3263C42.6088 26.4928 42.5884 26.6743 42.567 26.8653C42.5287 27.2071 42.4871 27.5793 42.4218 27.9501C42.3249 28.5905 42.1284 29.211 41.8401 29.7882C41.6433 30.1667 41.3842 30.5078 41.074 30.7965C40.9124 30.9499 40.8057 31.1542 40.7711 31.3768C40.7366 31.5992 40.7761 31.8272 40.8833 32.0242L47.1007 43.4489L38.1704 32.1898C38.0687 32.0593 37.9402 31.9532 37.7939 31.8793C37.6476 31.8053 37.4871 31.7651 37.324 31.7615C37.1607 31.7579 36.9988 31.7911 36.8495 31.8587C36.7003 31.9262 36.5674 32.0266 36.4603 32.1524C36.3472 32.2871 36.283 32.4577 36.2787 32.6353C36.2743 32.8127 36.3301 32.9863 36.4366 33.1267C36.8517 33.6688 37.2839 34.2183 37.714 34.7653C37.888 34.9866 38.0619 35.2078 38.234 35.4276L40.4813 38.2691L44.9917 43.9426L50 50L44.4132 44.4508L39.612 39.0275L37.2168 36.3093C36.9967 36.0561 36.7767 35.8051 36.5568 35.5543C35.9822 34.8991 35.4075 34.2439 34.8329 33.5488L34.7025 33.3865L34.6739 33.1348C34.6353 32.7935 34.6546 32.4479 34.7312 32.1134ZM11.7642 28.2951L11.7547 28.2804C11.7564 29.4918 12.4906 31.4906 13.9765 33.4132L14.0115 33.4603C14.4693 34.0382 14.9681 34.581 15.5039 35.0841C15.604 35.1831 15.712 35.2806 15.8217 35.3779C16.5083 35.9896 17.2587 36.5223 18.0594 36.966L18.1166 36.9952C20.6325 38.3949 23.9064 39.1158 27.9433 38.304C28.4855 38.9765 29.0694 39.6126 29.6915 40.2086C30.6443 41.1362 31.7658 41.8637 32.9924 42.3503C34.2082 42.805 35.5102 42.9673 36.7973 42.8245C35.5566 42.7103 34.3481 42.3578 33.2356 41.7853C32.1612 41.1971 31.1935 40.4249 30.375 39.5022C29.5452 38.5604 28.7653 37.574 28.0386 36.547L27.8563 36.3045C27.1453 35.3584 26.4214 34.3953 25.5196 33.5381C25.0232 33.061 24.4694 32.6501 23.8715 32.3155C23.7126 32.2327 23.552 32.1548 23.3946 32.0866C23.2374 32.0183 23.0896 31.955 22.9306 31.8965C22.6239 31.7749 22.306 31.6741 21.9882 31.5815C20.7167 31.2113 19.4151 31.0782 18.1436 31.0067C17.9668 30.9972 17.7902 30.9884 17.6144 30.9795C17.1603 30.9566 16.71 30.9339 16.2667 30.9012C15.6593 30.8643 15.0568 30.7676 14.4676 30.6122C13.5826 30.3764 12.8034 29.8377 12.26 29.0859C12.0754 28.8354 11.9096 28.5711 11.7642 28.2951ZM15.4859 35.0821C15.5498 35.1424 15.6148 35.2021 15.6795 35.2617C15.7211 35.2999 15.7627 35.338 15.8037 35.3761C15.772 35.3466 15.7403 35.3167 15.7086 35.2867C15.634 35.2164 15.5595 35.146 15.4859 35.0821ZM17.0751 23.1238C21.1637 24.8188 25.4406 26.592 24.8039 31.5685C23.4387 30.0794 21.2959 29.7671 18.9653 29.4273C16.851 29.1192 14.5824 28.7886 12.5996 27.5367C7.92079 24.5846 8.6041 18.8496 10.1934 16.7386C10.0501 20.2115 13.4902 21.6376 17.0751 23.1238ZM33.5476 25.6146C32.4684 25.7202 30.1686 26.2933 31.1969 28.1429C31.4181 28.5191 31.7388 28.8239 32.1219 29.0225C32.5051 29.2209 32.9353 29.3049 33.3632 29.2649C33.7973 29.2172 34.2067 29.0343 34.5356 28.7409C34.8645 28.4475 35.0972 28.058 35.2019 27.6249C35.5214 26.4151 35.1829 25.4523 33.5476 25.6146ZM33.8577 40.2477C34.5347 41.0467 35.5853 41.4656 36.6152 41.6182C36.6537 41.3561 36.678 41.0921 36.6882 40.8274C36.7343 38.6468 35.9763 36.2517 34.5093 34.5873C34.04 34.0492 33.4741 33.6083 32.8421 33.2882C32.4767 33.1064 31.5071 32.6551 31.1479 33.061C31.1207 33.0982 31.1034 33.1421 31.0981 33.1883C31.0928 33.2345 31.0996 33.2813 31.1177 33.3239C31.1773 33.4978 31.2922 33.6556 31.4063 33.8122C31.4873 33.9232 31.5678 34.0336 31.6279 34.1489C31.6886 34.2651 31.7537 34.3785 31.8186 34.4916C31.9405 34.7043 32.0622 34.9165 32.1556 35.1475C32.4019 35.7522 32.53 36.3951 32.6579 37.036C32.6834 37.1641 32.7091 37.293 32.7356 37.4208C32.9311 38.4096 33.1806 39.4488 33.8577 40.2477ZM19.3927 22.8526C20.443 19.8581 18.7491 17.3289 17.065 14.8145C15.1815 12.0021 13.3103 9.20835 15.3067 5.803C11.4272 7.43968 9.58519 12.3841 11.1952 16.3071C12.2096 18.7884 14.6546 20.1336 16.9242 21.3821C17.8047 21.8665 18.6589 22.3364 19.3927 22.8526ZM30.7451 15.7045C31.4482 15.4114 32.1112 15.0266 32.7175 14.5597C31.3388 15.0706 29.8916 15.3624 28.4263 15.4252C28.1609 15.4413 27.8935 15.4539 27.6239 15.4666C27.1581 15.4885 26.6844 15.5107 26.2013 15.5518C25.4095 15.6067 24.6284 15.7707 23.8794 16.039C23.0945 16.3195 22.3802 16.7743 21.7879 17.3704C21.1894 17.9859 20.7696 18.7587 20.5753 19.6032C20.4042 20.4009 20.4282 21.2294 20.6452 22.0153C20.8623 22.8013 21.2657 23.5204 21.8196 24.1091C21.5524 23.4164 21.3879 22.687 21.3317 21.9446C21.2833 21.2535 21.3754 20.5598 21.6019 19.9068C21.8232 19.2879 22.1848 18.7314 22.6572 18.283C23.1452 17.8302 23.7103 17.4726 24.3244 17.2276C25.1779 16.8763 26.1431 16.7326 27.1484 16.5829C27.6069 16.5147 28.0738 16.4451 28.5424 16.354C29.2959 16.213 30.034 15.9954 30.7451 15.7045ZM18.5575 3.34237L18.6249 3.28701C18.8026 3.14106 18.9831 2.99241 19.1777 2.85905C19.4256 2.69225 19.6853 2.5445 19.9548 2.41745C20.516 2.1377 21.1328 1.99489 21.7571 2.00014C23.448 2.03254 24.6433 3.31851 25.3425 4.77188C25.5258 5.15274 25.6873 5.54545 25.8488 5.93815C26.1074 6.56666 26.3659 7.19518 26.7142 7.77583C27.523 9.12511 28.9073 10.2114 30.5283 10.0101C31.1895 9.92567 31.8094 9.62206 32.1765 9.03585C33.1429 7.50463 31.7553 5.35959 29.9865 5.66335C29.836 5.68675 29.6888 5.72815 29.5478 5.78665C29.4073 5.84785 29.2762 5.9293 29.1585 6.0286C28.9113 6.23891 28.7252 6.51386 28.6197 6.82421C28.5035 7.14792 28.4777 7.49818 28.5449 7.83583C28.6175 8.18894 28.8216 8.49914 29.1139 8.70134C28.774 8.53874 28.5091 8.24759 28.3749 7.88953C28.2358 7.52083 28.1999 7.12002 28.2716 6.73167C28.3411 6.32726 28.5156 5.94925 28.7771 5.63725C28.9159 5.4769 29.0765 5.33739 29.2537 5.22324C29.4296 5.11044 29.6179 5.01939 29.8148 4.95203C30.214 4.81268 30.639 4.76768 31.0577 4.82048C31.6456 4.90614 32.2 5.15184 32.6628 5.5318C32.7483 5.6008 32.8303 5.6731 32.9098 5.7481C33.2247 6.0256 33.5105 6.33626 33.7626 6.67496C33.8757 6.80217 33.9906 6.92772 34.1107 7.04832C34.6773 7.65583 35.3459 8.15459 36.0847 8.52105C36.5941 8.74965 37.1272 8.91855 37.6738 9.02445C37.9489 9.08295 38.2269 9.1251 38.5051 9.1608C38.5353 9.16395 38.5933 9.1743 38.6655 9.18706C38.8977 9.22831 39.276 9.29535 39.3427 9.23235C38.483 10.0409 37.546 10.7589 36.5456 11.3757C35.5183 11.9984 34.4154 12.4805 33.2651 12.8095C32.0727 13.1524 30.8252 13.2502 29.5955 13.0969C28.9625 13.0192 28.3424 12.8554 27.7519 12.6098C27.1332 12.3572 26.5621 11.9967 26.064 11.5445C25.5713 11.0702 25.1729 10.5027 24.8912 9.87376C24.6368 9.28471 24.4471 8.6688 24.3254 8.03728C24.2602 7.69738 24.211 7.32402 24.1603 6.93747C23.9285 5.17599 23.6609 3.14346 21.676 2.7893C21.5499 2.76425 21.4226 2.7458 21.2946 2.73395L20.8988 2.72435C20.6267 2.74415 20.3564 2.78376 20.0899 2.84285C19.5377 2.97546 18.9995 3.16311 18.4831 3.40296L18.5575 3.34237ZM33.6582 6.55647C33.6107 6.50097 33.5626 6.44606 33.5139 6.39161C33.5338 6.41426 33.5536 6.43706 33.5735 6.45971C33.6017 6.49196 33.6299 6.52422 33.6582 6.55647Z" fill="#2E2E2E"/>
</svg>
