<svg width="65" height="66" viewBox="0 0 65 66" fill="none" xmlns="http://www.w3.org/2000/svg">
<path d="M23.4777 38.4011C25.445 34.7463 30.8596 22.8076 30.8596 22.8076H21.58L11.9292 42.6415C13.4464 43.3886 15.126 43.6511 16.7778 43.4088C19.7148 42.9848 22.0069 41.122 23.4777 38.4011Z" fill="url(#paint0_linear_8711_1222)"/>
<path d="M38.6036 22.7881L35.481 29.4213C34.5391 31.4506 33.3513 33.5001 33.3513 34.9741C33.3513 36.6047 34.5391 37.9222 36.0378 37.9222C37.5364 37.9222 38.7474 36.6047 38.7474 34.9741C38.7474 32.8943 37.3926 31.7383 35.3836 31.8948L37.6803 26.8922C41.4571 27.5787 43.8002 30.8701 43.8002 34.8681C43.8002 39.5275 40.3157 43.2934 36.0331 43.2934C31.7506 43.2934 28.3125 39.477 28.3125 34.8681C28.3125 32.6015 29.8622 29.4465 30.9757 27.1799L33.0869 22.7881H38.6036Z" fill="url(#paint1_linear_8711_1222)"/>
<path d="M52.7272 43.1416C48.1617 43.1416 44.4498 39.1031 44.4498 34.1358V31.5058C44.4498 26.5435 48.1617 22.5 52.7272 22.5C57.2928 22.5 61.0047 26.5385 61.0047 31.5058V34.1358C61.0047 39.0981 57.2928 43.1416 52.7272 43.1416ZM52.7272 27.4522C50.6718 27.4522 49.0015 29.2695 49.0015 31.5058V34.1358C49.0015 36.3721 50.6718 38.1894 52.7272 38.1894C54.7827 38.1894 56.453 36.3721 56.453 34.1358V31.5058C56.453 29.2695 54.7827 27.4522 52.7272 27.4522Z" fill="url(#paint2_linear_8711_1222)"/>
<path d="M14.1613 35.736C15.4698 33.0605 14.565 29.7338 12.1198 28.2699C9.67465 26.806 6.60774 27.755 5.22972 30.385L4.72398 31.3846C3.18821 34.4185 4.20432 38.2348 6.99285 39.9057L10.8856 42.2379L14.1753 35.7411L14.1613 35.736Z" fill="url(#paint3_linear_8711_1222)"/>
<defs>
<linearGradient id="paint0_linear_8711_1222" x1="17.1629" y1="51.3343" x2="52.6609" y2="18.7073" gradientUnits="userSpaceOnUse">
<stop stop-color="#FCD1A1"/>
<stop offset="0.37" stop-color="#FC6767"/>
<stop offset="1" stop-color="#ECA58C"/>
</linearGradient>
<linearGradient id="paint1_linear_8711_1222" x1="17.163" y1="51.335" x2="52.661" y2="18.708" gradientUnits="userSpaceOnUse">
<stop stop-color="#FCD1A1"/>
<stop offset="0.37" stop-color="#FC6767"/>
<stop offset="1" stop-color="#ECA58C"/>
</linearGradient>
<linearGradient id="paint2_linear_8711_1222" x1="17.1631" y1="51.3346" x2="52.6611" y2="18.7076" gradientUnits="userSpaceOnUse">
<stop stop-color="#FCD1A1"/>
<stop offset="0.37" stop-color="#FC6767"/>
<stop offset="1" stop-color="#ECA58C"/>
</linearGradient>
<linearGradient id="paint3_linear_8711_1222" x1="17.1633" y1="51.3346" x2="52.6613" y2="18.7076" gradientUnits="userSpaceOnUse">
<stop stop-color="#FCD1A1"/>
<stop offset="0.37" stop-color="#FC6767"/>
<stop offset="1" stop-color="#ECA58C"/>
</linearGradient>
</defs>
</svg>
