<svg width="401" height="76" viewBox="0 0 401 76" fill="none" xmlns="http://www.w3.org/2000/svg">
<path fill-rule="evenodd" clip-rule="evenodd" d="M184.063 3.96319L158.863 0V75.4717H184.063V3.96319ZM305.125 37.7507C305.125 54.8304 296.248 65.6864 286.111 70.7278L286.148 70.6906C281.318 73.0997 276.607 74.2523 273.074 74.8397C271.293 75.1371 269.802 75.2858 268.692 75.3602C268.17 75.4345 267.686 75.4345 267.358 75.4345H204.3V0H268.55C269.661 0.0743564 271.189 0.304861 272.97 0.594851C276.533 1.16739 281.333 2.29018 286.193 4.74393C296.449 9.91914 305.132 20.0093 305.132 37.7507H305.125ZM229.545 62.7939V62.8683L229.508 62.7939H229.545ZM255.73 62.7939H229.545V12.596H255.916C256.438 12.596 257.258 12.7001 258.294 12.8562C260.374 13.1685 263.049 13.8452 265.718 15.191C270.481 17.5853 276.786 24.0468 276.786 37.7135C276.786 50.421 270.622 57.7228 265.755 60.1245C263.049 61.463 260.292 62.1396 258.182 62.4965C257.139 62.675 256.289 62.7568 255.73 62.7939ZM398.235 75.4717H325.294V0L350.51 3.96319V62.9055H400.941L398.228 75.4643L398.235 75.4717Z" fill="black"/>
<path d="M119.175 0.407555C117.652 0.88921 116.278 1.74137 115.275 2.96403L81.9627 50.2774V3.96439L62.1683 0.518706C60.7942 1.03741 59.5687 1.85252 58.6774 2.96403L25.2164 50.3145V3.96439L0 0V75.4717H25.2536L56.7462 30.6407V75.4717H81.8884L113.381 31.4558V75.4717H138.597V3.96439L119.175 0.407555Z" fill="black"/>
</svg>
